<svg version="1.1" xmlns="http://www.w3.org/2000/svg" xmlns:xlink="http://www.w3.org/1999/xlink" width="48" height="48" viewBox="0,0,256,256"><g fill="#ffffff" fill-rule="nonzero" stroke="none" stroke-width="1" stroke-linecap="butt" stroke-linejoin="miter" stroke-miterlimit="10" stroke-dasharray="" stroke-dashoffset="0" font-family="none" font-weight="none" font-size="none" text-anchor="none" style="mix-blend-mode: normal"><g transform="translate(0,-25.6) scale(0.26667,0.26667)"><path d="M314,828h50v-88h88v-50h-88v-88h-50v88h-88v50h88zM529,793h201v-49h-201zM529,686h201v-50h-201zM566,523l61,-61l61,61l36,-36l-61,-61l61,-61l-36,-36l-61,61l-61,-61l-36,36l61,61l-61,61zM241,451h196v-50h-196zM180,936c-16,0 -30,-6 -42,-18c-12,-12 -18,-26 -18,-42v-600c0,-16 6,-30 18,-42c12,-12 26,-18 42,-18h600c16,0 30,6 42,18c12,12 18,26 18,42v600c0,16 -6,30 -18,42c-12,12 -26,18 -42,18zM180,876h600v-600h-600zM180,276v600z"></path></g></g></svg>